<?xml version="1.0" encoding="UTF-8" standalone="no"?>
<!-- Created with Inkscape (http://www.inkscape.org/) -->

<svg
   xmlns:dc="http://purl.org/dc/elements/1.1/"
   xmlns:cc="http://creativecommons.org/ns#"
   xmlns:rdf="http://www.w3.org/1999/02/22-rdf-syntax-ns#"
   xmlns:svg="http://www.w3.org/2000/svg"
   xmlns="http://www.w3.org/2000/svg"
   xmlns:sodipodi="http://sodipodi.sourceforge.net/DTD/sodipodi-0.dtd"
   xmlns:inkscape="http://www.inkscape.org/namespaces/inkscape"
   width="210mm"
   height="297mm"
   viewBox="0 0 744.09448819 1052.3622047"
   id="svg24535"
   version="1.1"
   inkscape:version="0.91 r13725"
   sodipodi:docname="fulldoctor.svg">
  <defs
     id="defs24537" />
  <sodipodi:namedview
     id="base"
     pagecolor="#ffffff"
     bordercolor="#666666"
     borderopacity="1.0"
     inkscape:pageopacity="0.0"
     inkscape:pageshadow="2"
     inkscape:zoom="0.47096633"
     inkscape:cx="-119.28571"
     inkscape:cy="594.43229"
     inkscape:document-units="px"
     inkscape:current-layer="g25450"
     showgrid="false"
     inkscape:window-width="1916"
     inkscape:window-height="1035"
     inkscape:window-x="4"
     inkscape:window-y="1"
     inkscape:window-maximized="1" />
  <metadata
     id="metadata24540">
    <rdf:RDF>
      <cc:Work
         rdf:about="">
        <dc:format>image/svg+xml</dc:format>
        <dc:type
           rdf:resource="http://purl.org/dc/dcmitype/StillImage" />
        <dc:title></dc:title>
      </cc:Work>
    </rdf:RDF>
  </metadata>
  <g
     inkscape:label="Layer 1"
     inkscape:groupmode="layer"
     id="layer1">
    <g
       id="g25450"
       transform="matrix(1.2065475,0,0,1.118527,1.1408097,-49.147799)">
      <g
         id="g25492">
        <path
           style="fill:#cdabab;fill-opacity:1;fill-rule:evenodd;stroke:#563e26;stroke-width:9;stroke-linecap:round;stroke-linejoin:round;stroke-miterlimit:4;stroke-dasharray:none;stroke-opacity:1"
           d="m 219.57526,607.62926 -33.49453,290.28594 92.10996,0.9304 27.91211,-205.61921 c 4.96215,3.09009 9.92431,6.55823 14.88646,0 l 75.3627,207.48002 80.94512,-0.9304 -79.08431,-289.35554 z"
           id="path25423"
           inkscape:connector-curvature="0"
           sodipodi:nodetypes="ccccccccc" />
        <path
           style="fill:#f8d4b6"
           inkscape:connector-curvature="0"
           d="m 249.23348,358.80398 6.357,30.986 c 0,0 30.192,15.089 48.452,12.706 18.274,-2.39 47.651,-23.836 47.651,-23.836 l 0,-29.39 -102.46,9.534"
           id="path25371" />
        <path
           style="fill:#69975b"
           inkscape:connector-curvature="0"
           d="m 347.73448,381.84498 c 0,0 -36.541,19.863 -52.431,20.651 -15.891,0.794 -40.508,-18.267 -40.508,-15.89 0,2.383 20.651,143.774 20.651,143.774 l -20.651,89.754 96.11,0 -27.802,-90.548 24.631,-147.741"
           id="path25373" />
        <path
           style="fill:#fffffe"
           inkscape:connector-curvature="0"
           d="m 263.83852,621.21783 11.60796,-90.83785 -25.411,-163.631 c -13.514,-0.795 -83.412,58.775 -93.74,68.302 -10.323,9.548 -45.261,48.466 -37.323,68.316 7.932,19.87 15.877,30.986 33.357,34.959 17.466,3.972 35.739,11.116 35.739,11.116 l -13.75591,125.67957 c 25.153,13.69432 56.33469,22.84711 81.48769,6.79196"
           id="path25375"
           sodipodi:nodetypes="ccccccccc" />
        <path
           style="fill:#fffffe"
           inkscape:connector-curvature="0"
           d="m 344.54948,621.73098 -21.446,-91.351 27.802,-175.542 15.104,-5.568 c 13.5,-0.788 74.278,62.754 84.599,72.281 10.336,9.534 45.281,48.459 37.336,68.309 -7.938,19.863 -15.89,30.993 -33.363,34.952 -17.473,3.979 -35.739,11.123 -35.739,11.123 l 12.71056,142.43812 c -30.03248,24.08341 -51.3175,13.35549 -78.96531,4.05356"
           id="path25377"
           sodipodi:nodetypes="cccccccccc" />
        <path
           style="fill:#565856"
           inkscape:connector-curvature="0"
           d="m 205.11248,195.98098 c 0,0 -39.656,20.511 -47.946,38.637 -8.282,18.084 -8.282,18.084 -8.282,18.084 0,0 -14.344,-13.57 -12.08,-30.164 2.264,-16.593 20.798,-37.125 20.798,-37.125 0,0 -17.69,-55.209 -14.343,-53.557 3.353,1.667 35.789,9.211 35.789,9.211 0,0 -5.956,-21.424 -2.595,-21.283 3.347,0.169 33.194,9.07 33.194,9.07 l 4.107,-17.971 26.395,14.329 c 0,0 43.003,-7.538 96.553,-9.036 53.564,-1.511 90.527,15.842 105.609,43.756 15.082,27.914 20.377,57.333 20.377,82.969 0,25.642 -13.064,49.584 -13.064,49.584 0,0 -0.521,-38.264 -14.105,-42.033 -13.57,-3.776 -26.079,7.917 -26.079,7.917 0,0 -14.66,-35.072 -52.361,-56.953 -37.716,-21.867 -74.265,-20.531 -74.265,-20.531 l -14.751,-24.722 -12.417,20.201 -18.851,-16.594 -8.297,24.152 -24.138,-18.126 0.752,30.185"
           id="path25379" />
        <path
           style="fill:#f8d4b6"
           inkscape:connector-curvature="0"
           d="m 431.87748,253.19498 c -9.106,-0.824 -17.585,2.657 -22.437,5.174 -5.484,-11.376 -18.302,-34.228 -39.129,-49.556 -28.652,-21.129 -87.497,-27.928 -87.497,-27.928 l -19.602,-24.891 -7.566,20.37 -18.851,-16.594 -5.281,27.162 -24.13,-21.889 -2.272,30.938 c 0,0 -15.827,9.05 -27.914,15.842 -4.781,2.685 -9.653,7.009 -13.816,11.298 -0.493,-0.119 -0.978,-0.211 -1.462,-0.33 0,0 -1.294,2.018 -3.313,5.498 -3.768,4.304 -6.3,7.664 -6.3,7.664 l 1.991,0.085 c -10.378,19.336 -26.67,55.251 -17.719,76.74 12.67,30.41 51.961,45.618 72.231,46.898 20.279,1.266 65.911,5.063 65.911,5.063 l 67.17,-10.133 63.366,-30.417 c 0,0 39.304,-17.747 44.367,-31.704 5.069,-13.936 -3.804,-38.004 -17.747,-39.29"
           id="path25381" />
        <path
           style="fill:#eb98af"
           inkscape:connector-curvature="0"
           d="m 404.04848,306.04798 c 0,23.394 -18.956,42.335 -42.35,42.335 -23.379,0 -42.349,-18.941 -42.349,-42.335 0,-23.392 18.97,-42.356 42.349,-42.356 23.394,0 42.35,18.964 42.35,42.356"
           id="path25383" />
        <path
           style="fill:#eb98af"
           inkscape:connector-curvature="0"
           d="m 164.28248,263.69198 c -9.092,0 -17.494,2.883 -24.392,7.769 -5.378,14.57 -10.125,34.989 -0.373,46.323 13.74,15.918 21.981,23.048 35.537,29.186 18.155,-4.774 31.577,-21.255 31.577,-40.922 0,-23.392 -18.956,-42.356 -42.349,-42.356"
           id="path25385" />
        <path
           style="fill-opacity:0;stroke:#563e26;stroke-width:9;stroke-linecap:round;stroke-linejoin:round"
           inkscape:connector-curvature="0"
           d="m 159.72548,227.85398 c 0,0 -60.594,89.93 10.435,119.896 71.002,29.961 179.824,22.157 232.601,-22.155 0,0 62.529,-16.095 46.245,-54.731 -15.638,-37.146 -48.214,-8.473 -48.214,-8.473"
           id="path25387" />
        <path
           style="fill:#563e26"
           inkscape:connector-curvature="0"
           d="m 203.30548,268.24198 c 0,13.098 -6.96,23.695 -15.581,23.695 -8.578,0 -15.546,-10.597 -15.546,-23.695 0,-13.058 6.968,-23.675 15.546,-23.675 8.621,0 15.581,10.617 15.581,23.675"
           id="path25389" />
        <path
           style="fill:#563e26"
           inkscape:connector-curvature="0"
           d="m 349.25348,268.24198 c 0,13.098 -6.968,23.695 -15.568,23.695 -8.585,0 -15.559,-10.597 -15.559,-23.695 0,-13.058 6.974,-23.675 15.559,-23.675 8.6,0 15.568,10.617 15.568,23.675"
           id="path25391" />
        <path
           sodipodi:nodetypes="ccccccccccccccccccccccccccccccccccccccccccccccccccccc"
           style="fill-opacity:0;stroke:#563e26;stroke-width:9;stroke-linecap:round;stroke-linejoin:round"
           inkscape:connector-curvature="0"
           d="m 264.63248,269.54898 c 0,0 -19.547,5.217 -16.298,14.99 3.255,9.774 16.93,9.127 16.93,9.127 m -42.341,14.991 c 0,0 20.861,21.508 41.709,20.855 20.847,-0.647 38.432,-21.516 38.432,-21.516 m -143.205,-82.603 c 0,0 23.386,-24.139 45.253,-29.412 l -0.752,-30.185 24.138,18.126 4.528,-25.664 22.62,18.106 7.566,-20.37 19.602,24.891 c 0,0 97.306,2.264 124.468,73.927 m -264.023,-6.778 c 0,0 -18.859,-40.733 14.343,-62.621 l -14.343,-53.557 35.451,12.073 -2.257,-24.145 33.194,9.07 0,-17.353 27.914,15.082 c 0,0 124.46,-34.7 187.067,16.593 62.613,51.293 28.667,143.318 28.667,143.318 m -215.178,77.878 c 0,0 -127.892,93.727 -121.528,135.824 6.349,42.102 66.726,48.452 66.726,48.452 m 17.466,-98.494 L 177.5367,677.0074 M 367.58448,350.06398 c 0,0 127.884,93.741 121.542,135.837 -6.357,42.095 -66.727,48.452 -66.727,48.452 m -17.479,-96.11 29.64691,245.26753 m -182.94991,-315.17253 26.22,162.83 -21.03244,150.17482 m -25.04356,-313.80682 -16.685,83.406 24.63,7.157 -18.275,24.624 42.906,45.273 m 85.781,-173.96 -26.213,177.132 29.05569,153.42638 m 17.00631,-329.75638 16.692,96.104 -24.63,7.157 18.267,24.624 -42.891,45.273 m -81.815,-138.206 c 0,0 47.658,27.788 90.548,-9.541"
           id="path25393" />
        <path
           style="fill-opacity:0;stroke:#563e26;stroke-width:13.5;stroke-linecap:round;stroke-linejoin:round"
           inkscape:connector-curvature="0"
           d="m 224.61048,551.82598 c 0,0 -60.37,-88.172 7.945,-112.802 68.302,-24.617 60.371,104.856 60.371,104.856 m -65.138,-109.617 c 0,0 -26.22,-38.13 -3.178,-64.336 m 150.919,-20.657 c 0,0 42.103,79.438 0,166.816"
           id="path25395" />
        <path
           style="fill:#bfc0bd"
           inkscape:connector-curvature="0"
           d="m 360.43248,516.87998 29.398,10.316 3.179,24.63 -54.816,-13.5 22.239,-21.446"
           id="path25397" />
        <path
           style="fill-opacity:0;stroke:#563e26;stroke-width:9;stroke-linecap:round;stroke-linejoin:round"
           inkscape:connector-curvature="0"
           d="m 360.43248,516.87998 29.398,10.316 3.179,24.63 -54.816,-13.5 22.239,-21.446 z"
           id="path25399" />
        <path
           style="fill:none;fill-rule:evenodd;stroke:#563e26;stroke-width:9.08926582;stroke-linecap:round;stroke-linejoin:round;stroke-miterlimit:4;stroke-dasharray:none;stroke-opacity:1"
           d="m 178.53947,679.70279 c 24.34793,9.81228 50.46791,8.09115 77.41943,0.95796"
           id="path25440"
           inkscape:connector-curvature="0"
           sodipodi:nodetypes="cc" />
        <path
           sodipodi:nodetypes="cc"
           inkscape:connector-curvature="0"
           id="path25442"
           d="m 354.98812,686.05958 c 24.54235,9.79172 50.87091,8.07419 78.03764,0.95595"
           style="fill:none;fill-rule:evenodd;stroke:#563e26;stroke-width:9.11591911;stroke-linecap:round;stroke-linejoin:round;stroke-miterlimit:4;stroke-dasharray:none;stroke-opacity:1" />
        <path
           sodipodi:nodetypes="cc"
           style="fill:none;fill-rule:evenodd;stroke:#563e26;stroke-width:8.99971199;stroke-linecap:round;stroke-linejoin:round;stroke-miterlimit:4;stroke-dasharray:none;stroke-opacity:1"
           d="m 265.76006,618.7941 71.38145,1.08385"
           id="path25444"
           inkscape:connector-curvature="0" />
        <path
           style="fill:#8d8d8d;fill-opacity:1;fill-rule:evenodd;stroke:#563e26;stroke-width:9;stroke-linecap:round;stroke-linejoin:round;stroke-miterlimit:4;stroke-dasharray:none;stroke-opacity:1"
           d="m 169.33347,922.10569 125.60449,1.86081 c 0,0 -7.08117,-54.25912 -59.54583,-53.96341 -64.52932,0.36371 -66.05866,52.1026 -66.05866,52.1026 z"
           id="path25446"
           inkscape:connector-curvature="0"
           sodipodi:nodetypes="ccsc" />
        <path
           sodipodi:nodetypes="ccsc"
           inkscape:connector-curvature="0"
           id="path25448"
           d="m 499.62671,920.24488 -125.60449,1.86081 c 0,0 7.08117,-54.25912 59.54583,-53.96341 64.52932,0.36371 66.05866,52.1026 66.05866,52.1026 z"
           style="fill:#8d8d8d;fill-opacity:1;fill-rule:evenodd;stroke:#563e26;stroke-width:9;stroke-linecap:round;stroke-linejoin:round;stroke-miterlimit:4;stroke-dasharray:none;stroke-opacity:1" />
      </g>
    </g>
  </g>
</svg>
